{"title":"Angelica - Playing With Angelicas Lovely Butt - FirstAnalQuest","uid":10719758,"size":604122163,"categoryP":"porn","categoryS":"movie_clips","magnet":"?xt=urn:btih:907c3b78702c384a3282492ec3d576e2a1429552&amp;dn=Angelica+-+Playing+With+Angelicas+Lovely+Butt+-+FirstAnalQuest&amp;tr=udp%3A%2F%2Ftracker.openbittorrent.com%3A80&amp;tr=udp%3A%2F%2Fopen.demonii.com%3A1337&amp;tr=udp%3A%2F%2Ftracker.coppersurfer.tk%3A6969&amp;tr=udp%3A%2F%2Fexodus.desync.com%3A6969","seeders":0,"leechers":3,"uploader":"athklym","files":-1,"time":1407459801,"description":" &lt;a href=&quot;http://bayimg.com/dApEoaaFl&quot; rel=&quot;nofollow&quot; target=&quot;_NEW&quot;&gt;http://bayimg.com/dApEoaaFl&lt;/a&gt;\nAngelica_Playing_With_Angelicas_Lovely_Butt_FirstAnalQuest.wmv\nFormat : Windows Media\nFile size : 576 MiB\nDuration : 30mn 5s\nOverall bit rate mode : Variable\nOverall bit rate : 2 677 Kbps\nMaximum Overall bit rate : 2 691 Kbps\nEncoded date : UTC 2010-06-02 00:49:20.820\n\nVideo\nID : 2\nFormat : VC-1\nFormat profile : MP@HL\nCodec ID : WMV3\nCodec ID/Info : Windows Media Video 9\nCodec ID/Hint : WMV3\nDescription of the codec : Windows Media Video 9 - Professional\nDuration : 30mn 5s\nBit rate mode : Constant\nBit rate : 2 500 Kbps\nWidth : 800 pixels\nHeight : 452 pixels\nDisplay aspect ratio : 16:9\nFrame rate : 29.970 fps\nColor space : YUV\nChroma subsampling : 4:2:0\nBit depth : 8 bits\nScan type : Progressive\nCompression mode : Lossy\nBits/(Pixel*Frame) : 0.231\nStream size : 538 MiB (93%)\nNumberOfFrames : 54103\n\nAudio\nID : 1\nFormat : WMA\nFormat version : Version 2\nCodec ID : 161\nCodec ID/Info : Windows Media Audio\nDescription of the codec : Windows Media Audio 9.2 - 160 kbps, 44 kHz, stereo 2-pass VBR\nDuration : 30mn 5s\nBit rate mode : Variable\nBit rate : 160 Kbps\nChannel(s) : 2 channels\nSampling rate : 44.1 KHz\nBit depth : 16 bits\nStream size : 34.4 MiB (6%)","torrent":{"xt":"urn:btih:907c3b78702c384a3282492ec3d576e2a1429552","amp;dn":"Angelica+-+Playing+With+Angelicas+Lovely+Butt+-+FirstAnalQuest","amp;tr":["udp%3A%2F%2Ftracker.openbittorrent.com%3A80","udp%3A%2F%2Fopen.demonii.com%3A1337","udp%3A%2F%2Ftracker.coppersurfer.tk%3A6969","udp%3A%2F%2Fexodus.desync.com%3A6969"],"infoHash":"907c3b78702c384a3282492ec3d576e2a1429552","infoHashBuffer":{"type":"Buffer","data":[144,124,59,120,112,44,56,74,50,130,73,46,195,213,118,226,161,66,149,82]},"announce":[],"urlList":[]}}